<svg id="Layer_1" data-name="Layer 1" xmlns="http://www.w3.org/2000/svg" xmlns:xlink="http://www.w3.org/1999/xlink" viewBox="0 0 1486.94 2000"><defs><style>.cls-1{fill:url(#linear-gradient);}.cls-2{fill:url(#linear-gradient-2);}.cls-3{fill:url(#linear-gradient-3);}.cls-4{fill:url(#linear-gradient-4);}</style><linearGradient id="linear-gradient" x1="280.08" y1="151.98" x2="891.24" y2="2052.22" gradientUnits="userSpaceOnUse"><stop offset="0" stop-color="#e0bc7d"/><stop offset="1" stop-color="#a67f47"/></linearGradient><linearGradient id="linear-gradient-2" x1="296.71" y1="146.63" x2="907.87" y2="2046.87" xlink:href="#linear-gradient"/><linearGradient id="linear-gradient-3" x1="419.01" y1="107.3" x2="1030.17" y2="2007.54" xlink:href="#linear-gradient"/><linearGradient id="linear-gradient-4" x1="588.08" y1="52.92" x2="1199.23" y2="1953.16" xlink:href="#linear-gradient"/></defs><title>Artboard 2</title><path class="cls-1" d="M837.41,1914.33c-5.3.07-10.52.07-15.75.07-224.86,0-365.36-37.35-418.87-54.85v50.62c37.77,14.19,179.82,60,434.33,56.19h.57c254.37,3.75,396.56-42,434.33-56.19v-50.62c-53.51,17.5-194,54.85-418.87,54.85C847.93,1914.4,842.7,1914.4,837.41,1914.33Z"/><path class="cls-2" d="M837.44,1879.05h.14c219.51,1.75,361.09-33.76,417.48-51.29-70.57-67.52-104.7-157-116.7-237.19-19.57,22.27-41.69,41.33-65.84,56C964.76,1711.86,848.13,1745,726,1745c-20.37,0-41-1-61.48-2.91-59.58-5.6-115.24-17.53-163.77-31.36-17.76,37.47-46.2,83.89-81,117.07,56.39,17.53,198.12,53.11,417.55,51.29Z"/><path class="cls-3" d="M371.2,1123.58s137,0,181.61,113.68c2.11-61.84-14-151.91-74.43-279.82A1035.79,1035.79,0,0,1,428.69,832c-5.6-17.54-10.48-34.49-14.7-51-2.76-11-5.24-21.75-7.57-32.3-1.09-5.31-2.18-10.55-3.12-15.72-2-10.33-3.71-20.37-5.24-30.19-2.26-14.77-3.93-29-5.24-42.56v-.08c-1.24-13.6-2-26.62-2.55-39.07-.14-4.14-.29-8.22-.36-12.22v-.07c-.07-2.11-.07-4.22-.07-6.33-.08-5.6,0-11.06.07-16.37.07-3.71.14-7.42.29-11.06.22-6.26.51-12.37.87-18.26a18.65,18.65,0,0,0,.15-2c.43-6.33,1-12.44,1.53-18.26.65-6.11,1.38-11.93,2.1-17.46,0-.07.08-.22.08-.29a444.71,444.71,0,0,1,8.8-46.86v-4.58l2.91-6.11c1.82-6,3.79-12.23,5.9-18.41l.43-1.31c82.44-242.79,264.77-306.89,349.82-306.89,3.56,0,6.91.15,10,.36l22.33,3.42c20.77-52.75,61.56-84.86,98.05-102,7-3.28,7.29-4.05-.74-1.46-92.05,29.75-311,98.32-480.81,26,27.87,113.57-64.61,291.9-211.87,298.16,20.3,67.23-1.23,170.18-87.52,238.42l-31.8,21.69s60.17,32.3,95.1,107.09c20.15,43.22,31.94,100.63,18.77,174.18C194.34,900.54,360.07,933.55,371.2,1123.58Z"/><path class="cls-4" d="M1147.38,275.56a10,10,0,0,0,3.57-4.66L1406.47,61,984.55,226.74,944.32,66.82a12.78,12.78,0,0,1,0-1.75S834.89,84.79,825.72,199.38c-.36,3.13-.43,6.33-.58,9.61l-50.06-29.54c-29-7.79-233.47,17.39-321,276.77,0,0-.07.21-.22.58-2.25,6.69-4.36,13.39-6.33,20.15a1.09,1.09,0,0,0-.14.51c-12.45,46.42-32.82,167.2,22.91,341.3a975,975,0,0,0,47.59,120c111.32,236,89.56,377.25,28.59,442.51,0-.88-.27-1.24-.64-1.39.39-4.71.64-9.46.64-14.27a169.12,169.12,0,0,0-299-108.29c-26.2,31.41-38.51,72-37.91,112.85.8,54.7,16.49,109.36,47.81,154.49,45.73,65.91,120.69,104.64,194.6,130.51,174.71,61.15,373.61,66.09,542.15-16.28,76.55-37.42,133.29-86.58,167.31-165.88,29.91-69.71,40.56-150.65,23.09-225-15.57-66.49-50.71-133.58-95.9-199.64-43.29-63.3-95.89-125.65-149.51-185.53-28-31.29-51.66-60-71.67-86.44-.07-.07-.07-.14-.14-.21-90.59-119.69-105.5-190.34-106.52-221.41,26.63,63.38,85.85,75.82,127.69,75.82a208.17,208.17,0,0,0,46.49-5L1060,682.42l3.64,64.39c41.69,47.29,144,56.75,144,56.75,63.51-42,72.61-125.58,73.7-154.46,0-1,.14-2,.14-2.84.08-3.28.08-5.82.08-7.35v-1.75L1077,331.66Z"/></svg>