<svg id="Layer_1" data-name="Layer 1" xmlns="http://www.w3.org/2000/svg" xmlns:xlink="http://www.w3.org/1999/xlink" viewBox="0 0 2000 1695.2"><defs><style>.cls-1{fill:url(#radial-gradient);}.cls-2{fill:#fff;}.cls-3{fill:#0079c9;}.cls-4{fill:#3f4fb8;}.cls-5{fill:#7d25a6;}.cls-6{fill:url(#linear-gradient);}.cls-7{fill:url(#linear-gradient-2);}.cls-8{fill:url(#linear-gradient-3);}.cls-9{fill:url(#linear-gradient-4);}.cls-10{fill:url(#linear-gradient-5);}.cls-11{fill:url(#linear-gradient-6);}.cls-12{fill:url(#linear-gradient-7);}</style><radialGradient id="radial-gradient" cx="967.96" cy="821.04" r="1004.35" gradientUnits="userSpaceOnUse"><stop offset="0" stop-color="#ea63ff"/><stop offset="1" stop-color="#511887"/></radialGradient><linearGradient id="linear-gradient" x1="560.8" y1="269.96" x2="1076" y2="1588.8" gradientUnits="userSpaceOnUse"><stop offset="0" stop-color="#e0bc7d"/><stop offset="1" stop-color="#a67f47"/></linearGradient><linearGradient id="linear-gradient-2" x1="573.33" y1="265.07" x2="1088.53" y2="1583.91" xlink:href="#linear-gradient"/><linearGradient id="linear-gradient-3" x1="654.63" y1="86.58" x2="1398.89" y2="1658.51" xlink:href="#linear-gradient"/><linearGradient id="linear-gradient-4" x1="534.64" y1="143.39" x2="1278.9" y2="1715.32" xlink:href="#linear-gradient"/><linearGradient id="linear-gradient-5" x1="492.98" y1="163.12" x2="1237.24" y2="1735.04" xlink:href="#linear-gradient"/><linearGradient id="linear-gradient-6" x1="877.08" y1="-18.74" x2="1621.34" y2="1553.19" xlink:href="#linear-gradient"/><linearGradient id="linear-gradient-7" x1="587.86" y1="118.19" x2="1332.12" y2="1690.12" xlink:href="#linear-gradient"/></defs><title>Artboard 3</title><path class="cls-1" d="M712,287.68c-16.43,9.34-35,13.57-49.9,15.48-.68.06-1.36.13-2,.13l-17.66,1.3c-90.67-15-182.15-26.11-274.52-31.91C482.59,266.48,597.8,273.16,712,287.68Z"/><path class="cls-1" d="M1940.07,1036.19c12.41-36.2,15.48-74.58,8.46-110.84s-23.25-70.36-45.2-100.76c-21.61-30.54-48.34-57.94-77.38-82.89a796.35,796.35,0,0,0-93-68.86c-65.65-41.78-135.32-78.46-207.58-110.36-61.9-28.09-125.36-53.52-189.85-76.7l-42.27-63c9.41,3.14,18.82,6.34,28.16,9.62C1473.24,486.6,1622.94,551.57,1755,644.14,1820.5,690.23,1881.72,745,1923.57,813c20.32,34,35,71.79,38.25,110.78C1965.43,962.7,1957.18,1001.77,1940.07,1036.19Z"/><path class="cls-1" d="M496.43,1195.91c-87.87-39.06-172.75-84.39-251.42-139.54C179.5,1010.29,118.29,955.48,76.36,887.51c-20.25-34.08-34.9-71.78-38.17-110.77-3.62-38.93,4.56-78,21.74-112.42-12.4,36.2-15.47,74.58-8.45,110.85s23.24,70.35,45.13,100.68c21.68,30.61,48.33,58,77.44,83a796.27,796.27,0,0,0,93.05,68.85c65.65,41.79,135.32,78.46,207.58,110.37,6.55,2.93,13.09,5.86,19.63,8.72q-.51,4.41-.81,8.8l-.28,5.11c-.07,3.55-.07,7.09.07,10.43A149,149,0,0,0,496.43,1195.91Z"/><path class="cls-1" d="M1632.15,1427.83c-108.94,5.86-218.42.14-327-12.88a224,224,0,0,1-14.59-30.68C1403.16,1405.13,1516.94,1420.6,1632.15,1427.83Z"/><path class="cls-1" d="M445.23,506.51c-50.65,1.7-101.57,6.07-150.45,18.34-24.34,6.27-48.47,14.24-69.81,26.72a132.08,132.08,0,0,0-29.31,22.15,83.05,83.05,0,0,0-18.54,30.95c2.52-11.86,8.11-23.11,15.68-33.13a137.6,137.6,0,0,1,28.08-25.63c21.27-14.59,45.61-24.34,70.08-32.52,49.43-15.95,101.1-23.79,152.7-28.9,4.78-.41,9.55-.82,14.25-1.09-2.66,7.57-5,15.27-7,23C449.05,506.37,447.14,506.44,445.23,506.51Z"/><path class="cls-1" d="M489.47,722.13A218.59,218.59,0,0,0,506,741a63.21,63.21,0,0,0-10.09,11.39c-7.36,11.52-7.43,23.79-.95,36.27a106.32,106.32,0,0,0,19.9,25.15c15.27,31.43,34.16,59.44,57.54,82.62q-12.68-7.16-25-15c-15.82-10.15-31.29-21.13-45.61-34.08-14-13-27.74-27.68-36-47.11a65.38,65.38,0,0,1-5.25-32c1-11.25,6.14-21.68,12.34-30.47A90.26,90.26,0,0,1,489.47,722.13Z"/><path class="cls-1" d="M604,988.4a211.93,211.93,0,0,0-40.77,30.2c-18.54-9.61-36.74-19.7-54.74-30.47-44.1-27.13-87.39-57.26-122.16-98.78-16.9-20.65-32-45.74-35.38-76a94.45,94.45,0,0,1,7.3-45.06c6.47-14.25,16.22-26.11,27.06-36.06C407.6,713,433,700.93,458.52,691.93c3.21-1.09,6.41-2.18,9.68-3.2,1.64,3.34,3.48,6.61,5.39,9.88a216.89,216.89,0,0,0,15.61,23.11c-5.45,1.77-10.77,3.68-15.95,5.66-22.29,8.59-43,19.43-58.42,33.34-7.23,7.15-13.09,14.72-16.57,22.9a54.17,54.17,0,0,0-3.34,25.7c2.32,17.93,13,36.88,27.75,53.72,29.45,34,69.46,62.72,111.25,87.67C556.69,964.14,580.07,976.61,604,988.4Z"/><path class="cls-1" d="M1641.76,932.3c-6.48,14.18-16.36,26-27.07,36-22.22,19.23-47.71,31.23-73.21,40.29-25.63,8.8-51.67,14.66-77.71,19q-38.25,6.24-76.42,8.93c-.07-4.5-.14-9-.34-13.36-.21-3.34-.35-6.68-.55-10-.41-6.95-1-13.91-1.77-20.72,8-1.09,15.88-2.39,23.72-3.82,17.25-3.41,34.15-7.7,49.9-13.57,15.48-6,30.61-13.43,40.43-23.38,5-4.91,8.72-10.29,10.29-16.16,1.16-2.86.82-6,1.5-9.06-.75-3.14-.2-6.34-1.5-9.68-3.61-13.3-13.63-26.59-25.22-38.52-23.59-24.13-54.4-43.22-85.35-60.94-31.36-17.52-64.29-33.07-97.83-47.45,35.32,9.95,70.22,21.61,104,36.4,33.61,14.86,66.74,31.84,95.78,56.31,14.18,12.41,27.81,27.07,35.11,46.9,8.25,19.64,2.11,46.09-13,61.49-1.78,2.12-3.82,3.75-5.66,5.59,3.27-1.16,6.61-2.25,9.88-3.47,22.16-8.46,43-19.36,58.29-33.27,7.23-7.16,13.16-14.73,16.63-22.91a54.6,54.6,0,0,0,3.41-25.7c-2.39-18-13.09-36.81-27.74-53.72-29.45-34-69.54-62.71-111.46-87.66-42.13-25-87-46.84-132.87-66.4q-43.86-19-89-35.59a248.35,248.35,0,0,0,27.27,4.37l10.7,1,9-6a111.67,111.67,0,0,0,23.66-20.72c12.88,5,25.76,10.29,38.51,15.68,47.38,20.52,93.81,43.49,138.25,70.28,44.11,27.06,87.46,57.13,122.16,98.71,16.91,20.72,32,45.68,35.45,76A94.57,94.57,0,0,1,1641.76,932.3Z"/><path class="cls-1" d="M1823,1095.91c-2.52,11.79-8.18,23.11-15.74,33.06a139.78,139.78,0,0,1-28.09,25.63c-21.34,14.59-45.6,24.27-70.21,32.45-49.36,16-101,23.79-152.64,29-71.92,6.2-144.18,6.13-216.17,1.84q8.6-15.45,15.55-30.82c66.19,6.27,132.73,9.14,199.12,6.89,50.65-1.71,101.58-6.07,150.52-18.27,24.34-6.34,48.27-14.32,69.67-26.72a139.14,139.14,0,0,0,29.45-22.16A86.08,86.08,0,0,0,1823,1095.91Z"/><path class="cls-2" d="M490.63,721.24c-.41.28-.82.62-1.16.89-.06-.14-.2-.27-.27-.41C489.68,721.59,490.16,721.38,490.63,721.24Z"/><path class="cls-3" d="M1198.44,243.79l37-15.62a6.18,6.18,0,0,1,4.2,0l38.67,16.23c4.63,1.94,5.2,6.09,1.27,9.21L1254,274a6,6,0,0,1-5.45.75l-50.06-20.94C1191.94,251,1191.93,246.55,1198.44,243.79Z"/><path class="cls-4" d="M1262.14,226.83l30.49,12.74a6,6,0,0,0,5.44-.76l25.59-20.32c3.93-3.13,3.36-7.28-1.28-9.22l-19.19-8a6.31,6.31,0,0,0-4.2,0l-36.88,15.62C1255.6,219.62,1255.61,224.11,1262.14,226.83Z"/><path class="cls-5" d="M1325.68,199.93l10.94,4.6a6,6,0,0,0,5.46-.75l55.76-44.28L1325.67,190C1319.17,192.71,1319.17,197.2,1325.68,199.93Z"/><path class="cls-6" d="M1049,1538.81c-3.42,0-6.81,0-10.19,0-145.56,0-236.51-24.18-271.15-35.51v32.77c24.45,9.18,116.41,38.84,281.16,36.38h.37c164.66,2.42,256.71-27.2,281.16-36.38v-32.77c-34.65,11.33-125.59,35.51-271.15,35.51C1055.83,1538.86,1052.45,1538.86,1049,1538.81Z"/><path class="cls-7" d="M1049,1516h.1c142.13,1.15,233.76-21.84,270.28-33.18-47.21-45.2-65.59-102.87-72.71-141.49-67,52.7-155.53,89.35-267.22,89.35-47.76,0-98-6.9-149.63-20.66-11.34,24.77-27.7,50.36-51.19,72.8,36.52,11.34,128.24,34.37,270.28,33.18Z"/><path class="cls-8" d="M855.38,276.31,778.75,189a89.59,89.59,0,0,1,2.74,14.92c6.6,71.06-36.43,119.55-115.18,129.65-1.82.25-3.64.34-5.45.46l117.76,67.76C797.77,345.93,825.41,305.31,855.38,276.31Z"/><path class="cls-9" d="M772.41,421.77,646.06,349.06a91.35,91.35,0,0,1,7.06,18.39c12.89,49-2,93.46-41.76,125.12a88.3,88.3,0,0,1-13.23,8.71l159.61,22.87A387,387,0,0,1,772.41,421.77Z"/><path class="cls-10" d="M768.43,625.4c-6.54-.52-37.19-2.37-69.09-7.5-30.22-4.86-57.55-22.3-73-48.75-10.3-17.68-27.06-34.81-49.3-50.24l181,25.91A460.69,460.69,0,0,0,768.43,625.4Z"/><path class="cls-11" d="M986.93,211.72h31s31.81-62.46,104.42-88.82c0,0-22.18-4.74-63.2,20.78-35.45,22.06-51.54,48.87-125.82,54.91a286.94,286.94,0,0,1-146.24-31.08l83.53,95.15C912.36,228.21,956.49,214.3,986.93,211.72Z"/><path class="cls-12" d="M1356.33,1024.47c-.14-3.14-.27-6.28-.48-9.41-5.93-96.8-42.95-182.7-117.8-250l-156-140.57a279.83,279.83,0,0,1-89.37-166.67c14.45,47.37,54.81,56.3,82.76,56.3a129.16,129.16,0,0,0,28.9-3.13l77.85,35.31,2.25,40.09c26,29.45,89.64,35.31,89.64,35.31,39.54-26.11,45.2-78.13,45.88-96.12,0-.62.07-1.23.07-1.77.07-2,.07-3.62.07-4.57V518.1L1192.79,328l43.83-34.9c2-1.5,2.8-3.34,2.59-5,.34-2.18-1-4.23-3.88-5.39l-58.43-24.54a6.7,6.7,0,0,0-4.29,0l-20.72,8.8L1134,240.23l-29.52,12.55,5.79-89.65h-.06l.06-1.09s-68.1,12.27-73.82,83.58c-.21,2-.28,3.95-.35,6l-29.58-18.88s-.55.13-1.57.47c-18.06-4.84-145.34,10.84-199.81,172.27-25,74.44-23.17,149.84-4.63,223.39,56.65,7.84,174.65,32.52,239.21,105.46,0,.07.07.14.13.21S994.68,699,891.54,674.89q-22.59-5.32-49.08-9.75c-10.09-1.64-20.52-3.2-31.49-4.57l-1.57-.2c-23.45-2.93-48.95-5.18-76.35-6.34-11-.55-21.61-1.43-31.63-2.86C515,625.67,502.9,456.47,502.9,456.47c-73,139-20.31,327.56,213.51,333.63a497.08,497.08,0,0,0,56.86-1.84c31.29-2.87,59.58-4,85.07-4h4.3c12.06-.06,23.45.28,34.29.82h.13c91.63,4.71,141.59,26.32,168.32,45.34,22.15,15.74,28.22,29.65,28.56,30.67-2.73-1.84-52.69-34-163.74-27.4h-.14c-11.73.68-24,1.77-37.09,3.47-10.15,1.23-20.79,2.8-31.9,4.78-233.55,41-330.22-53.65-330.22-53.65,43,99.73,135,143.84,298,128.43a496.11,496.11,0,0,1,51.2-2.18,205.63,205.63,0,0,1,70.62,13.09c84,31.42,141.94,115.75,133,210.23-5.39,58.77-27.68,119.23-86,158.57,0,0,31.43-215.69-154.54-289.79a326.32,326.32,0,0,0-69.87-19c-66.4-10.77-142.34,8.12-190.61,54.75-28.49,27.47-55.69,69.73-58.56,114.66-.06,1.43-.13,2.93-.2,4.36-.07,2.8-.07,5.59.07,8.45,1,25.09,10.29,50.79,31.63,74.79,43.49,49,146.57,32.38,154.68-47.11.2-1.43.27-2.86.34-4.36a43.25,43.25,0,0,0,.14-5.11,119.07,119.07,0,0,0-2.66-25.91c-11.18-54-64.77-69.19-90-70.56-.75,0-1.43-.06-2.11-.06,0,0,130.89-68.79,218.69,43.76,28.15,36,37.7,79.9,36,122.78-.27,5.31-.61,10.56-1.16,15.88-.47,4.64-1,9.2-1.77,13.7a279.46,279.46,0,0,1-28.77,86.1c.14.07.34.07.48.14,346.65,100.55,509.57-168.45,516.6-304.45.2-4.36.4-8.73.54-13C1356.87,1045.67,1356.81,1035,1356.33,1024.47Z"/></svg>