<svg id="Layer_1" data-name="Layer 1" xmlns="http://www.w3.org/2000/svg" xmlns:xlink="http://www.w3.org/1999/xlink" viewBox="0 0 2000 1523.62"><defs><style>.cls-1{fill:#0079c9;}.cls-2{fill:#3f4fb8;}.cls-3{fill:#7d25a6;}.cls-4{fill:url(#linear-gradient);}.cls-5{fill:url(#linear-gradient-2);}.cls-6{fill:url(#linear-gradient-3);}.cls-7{fill:url(#linear-gradient-4);}.cls-8{fill:url(#linear-gradient-5);}.cls-9{fill:url(#radial-gradient);}</style><linearGradient id="linear-gradient" x1="623.41" y1="69.62" x2="1591.02" y2="2113.29" gradientTransform="translate(-0.33 1.74) rotate(1.57)" gradientUnits="userSpaceOnUse"><stop offset="0" stop-color="#e0bc7d"/><stop offset="1" stop-color="#a67f47"/></linearGradient><linearGradient id="linear-gradient-2" x1="467.41" y1="143.48" x2="1435.03" y2="2187.15" xlink:href="#linear-gradient"/><linearGradient id="linear-gradient-3" x1="413.25" y1="169.13" x2="1380.86" y2="2212.8" xlink:href="#linear-gradient"/><linearGradient id="linear-gradient-4" x1="912.61" y1="-67.31" x2="1880.23" y2="1976.36" xlink:href="#linear-gradient"/><linearGradient id="linear-gradient-5" x1="650.38" y1="146.61" x2="1433.52" y2="1800.65" gradientTransform="matrix(1, 0, 0, 1, 0, 0)" xlink:href="#linear-gradient"/><radialGradient id="radial-gradient" cx="926.04" cy="749.73" r="1088.95" gradientUnits="userSpaceOnUse"><stop offset="0" stop-color="#ea63ff"/><stop offset="1" stop-color="#511887"/></radialGradient></defs><title>Artboard 4</title><path class="cls-1" d="M1322.11,312l48.62-19a8.1,8.1,0,0,1,5.45.15l49.68,22.47c6,2.69,6.54,8.1,1.32,12l-34,25.51a7.75,7.75,0,0,1-7.11.79l-64.31-29C1313.4,321.2,1313.55,315.37,1322.11,312Z"/><path class="cls-2" d="M1405.49,292.24l39.17,17.64a7.77,7.77,0,0,0,7.11-.79l34-25.51c5.23-3.92,4.63-9.33-1.33-12l-24.66-11.11a8.1,8.1,0,0,0-5.45-.14l-48.49,19C1397.26,282.64,1397.11,288.47,1405.49,292.24Z"/><path class="cls-3" d="M1489,259.54l14.07,6.37a7.78,7.78,0,0,0,7.11-.78l74-55.57-94.88,37C1480.82,249.93,1480.66,255.76,1489,259.54Z"/><path class="cls-4" d="M875.11,342.1l-96.5-116.22a117.24,117.24,0,0,1,3,19.49c6,92.58-51.61,154.06-154.31,164.39-2.37.26-4.74.31-7.1.41l150.64,92.25C797.76,430.53,835.13,378.72,875.11,342.1Z"/><path class="cls-5" d="M762.1,528.18l-161.62-99A118.86,118.86,0,0,1,609,453.35c15,64.18-5.85,121.39-58.73,161.12a112.62,112.62,0,0,1-17.5,10.85L739.4,660.71A503.55,503.55,0,0,1,762.1,528.18Z"/><path class="cls-6" d="M749.69,792.68c-8.48-.91-48.24-4.4-89.51-12.2-39.11-7.39-74-31-93.1-66-12.77-23.35-33.93-46.2-62.29-67l234.3,40.1A600.15,600.15,0,0,0,749.69,792.68Z"/><path class="cls-7" d="M1048.36,262.83l40.26,1.1s43.57-80.05,138.86-111.73c0,0-28.65-6.94-82.86,24.77-46.86,27.4-68.72,61.67-165.48,66.89A373.15,373.15,0,0,1,790.2,198.27L895.37,324.89C950.87,281.6,1008.72,265.1,1048.36,262.83Z"/><path class="cls-8" d="M1499.48,1330.6c-107-11.85-219.17-30.94-342.58-58.19q-26.85-6-53.58-12.44c-13-3.09-26-6.18-38.9-9.41a268.61,268.61,0,0,0-179.88-78.19,634.79,634.79,0,0,0-66.6,1.05c-7.84.53-15.6,1-23.17,1.25-2.17.13-4.35.2-6.52.27-4,.13-8,.26-12.11.32-8.82.2-17.51.27-25.93.07-6.06,0-12-.13-17.84-.46h-1.12c-3-.2-6-.33-8.88-.46-36.46-1.91-69.37-6.78-98.93-14.74-94.51-25-154.8-80-188.24-163.69,3.23,3.22,126.24,125.71,427.23,81.35,14.48-2.17,28.37-3.82,41.6-5.07,17-1.71,33-2.7,48.31-3.16h.19c144.54-4.67,208.38,39,211.81,41.4-.4-1.32-7.77-19.61-36-40.87-34-25.67-98.2-55.49-217.13-64.9H911q-21-1.68-44.49-2.3l-5.59-.13c-33.18-.93-70-.4-110.71,2.23a647.51,647.51,0,0,1-74,.33C372.55,988.67,310.81,741.79,410.59,563.68c0,0,9.81,220.36,251.09,260.12,13,2.23,26.66,3.75,41,4.8,35.61,2.5,68.65,6.32,99,11,.72.13,1.32.2,2,.33,14.22,2.17,27.71,4.54,40.81,7,22.84,4.41,44,9.28,63.38,14.42,129.4,34,187.25,80,190.48,82.67a.22.22,0,0,1-.07-.14C1017,846.83,864.54,810.57,791.21,798.33,769.76,702.1,770,604,805.17,508.2c76.54-207.85,242.47-223.72,265.77-216.81l2.11-.59,37.78,25.61a76.54,76.54,0,0,1,.65-7.77c9.94-92.48,98.93-106,98.93-106l-.13,1.38h.06l-10.72,116.3,38.83-15.27,22.31,35.41L1288,329.77a8.14,8.14,0,0,1,5.59.19l75,34c3.81,1.58,5.39,4.27,4.87,7.1.19,2.18-.93,4.48-3.56,6.39l-58.18,43.77,158.75,251.62s0,.53-.06,1.45c0,1.25-.07,3.29-.27,5.92,0,.73-.13,1.52-.13,2.31-1.51,23.36-10.73,90.76-63,123.27,0,0-82.54-9.87-115.25-49l-1.45-52.2-100-48.64a168.3,168.3,0,0,1-37.64,3c-36.33-1-88.46-14-105.58-76.15A364.12,364.12,0,0,0,1157.36,802.6l197.72,188.24C1449.92,1081,1495,1194,1499.28,1319.93,1499.42,1323.55,1499.48,1327.11,1499.48,1330.6Z"/><path class="cls-9" d="M751.79,273.1a121.25,121.25,0,0,1-6,28.56C628.58,279,509.91,262.17,389.66,254.6,510.43,248.09,631.8,256.31,751.79,273.1Z"/><path class="cls-9" d="M1907.62,991.7c11.91-34.88,14.94-71.94,8.1-107s-22.45-67.92-43.58-97.28c-20.86-29.48-46.66-55.94-74.7-80A769.13,769.13,0,0,0,1707.6,641c-63.38-40.34-130.65-75.75-200.42-106.56q-59.54-27-121-50.74l-34.82-55.16,4.15-3.09c131,49,259.06,107.68,373.38,187.84,63.25,44.5,122.36,97.42,162.77,163,19.62,32.84,33.77,69.3,36.93,107C1932.1,920.81,1924.14,958.53,1907.62,991.7Z"/><path class="cls-9" d="M529.26,1152.75c-90.37-39.29-177.71-85.1-258.21-141.5-63.18-44.56-122.35-97.48-162.76-163-19.62-32.91-33.7-69.38-36.93-107-3.42-37.58,4.48-75.3,21.06-108.53-12,34.95-14.94,72-8.16,107s22.45,67.92,43.57,97.21c20.87,29.55,46.67,56,74.71,80.1a777.88,777.88,0,0,0,89.9,66.48A1450.49,1450.49,0,0,0,437,1064.16,274.94,274.94,0,0,0,529.26,1152.75Z"/><path class="cls-9" d="M1610.32,1369.89c-27.18,1.45-54.3,2.17-81.55,2.17h-.26c-9.87,0-19.75-.06-29.69-.26-119.32-1.85-238.65-16.26-356-37.12-7.57-1.39-15.2-2.77-22.77-4.22-12.37-2.3-24.68-4.74-37-7.24-31.33-6.18-62.59-13-93.66-20.33q-68.22-16.1-135.58-35.41-55.68-15.8-110.58-33.9h-.06c-17.91-5.79-35.68-11.78-53.45-17.9q-37.12-13.23-73.91-27.51C658,1199.49,705.91,1205,759.75,1205c10.93,0,22.18-.19,33.77-.72h.06q65.76,21.23,132.5,40c13.29,3.89,26.52,7.64,39.82,11.32q41.55,11.46,83.39,21.79,23.49,5.82,47.19,11.45,26.85,6.42,53.9,12.51c115,25.4,231.16,46.14,348.9,59q14.33,1.58,28.64,3c.32,0,.65.06,1,.06Q1569.48,1367.33,1610.32,1369.89Z"/><path class="cls-9" d="M422.17,482.6c-34.82,2.5-69.44,7-103.07,15.46-23.43,6.06-46.73,13.76-67.4,25.8a131,131,0,0,0-28.3,21.39,81.1,81.1,0,0,0-17.84,29.89c2.37-11.46,7.77-22.32,15.14-32a131.85,131.85,0,0,1,27.12-24.75c20.47-14.08,44-23.5,67.66-31.39,38.31-12.38,78-19.68,118-24.62.79-.13,1.51-.2,2.3-.26,9.08-1.12,18.1-2.11,27.18-3q57.76-4.94,115.65-4.74c.59,1.91,1.11,3.82,1.58,5.73a140.92,140.92,0,0,1,3.42,21.52c-39.69-2-79.44-2.57-119.13-1.25-9.22.33-18.5.72-27.78,1.31C431.85,481.87,427,482.2,422.17,482.6Z"/><path class="cls-9" d="M1794.48,1049.35c-2.37,11.39-7.83,22.32-15.14,31.93a135.3,135.3,0,0,1-27.12,24.81c-20.6,14.09-44,23.37-67.79,31.26-47.65,15.54-97.54,23-147.37,28-11.45,1-22.9,1.84-34.35,2.5-2.57-7.77-5.33-15.47-8.36-23q20.63,0,41.27-.72c48.9-1.71,98.07-5.86,145.32-17.71,23.5-6,46.6-13.75,67.27-25.8a129.71,129.71,0,0,0,28.43-21.39A82.93,82.93,0,0,0,1794.48,1049.35Z"/></svg>